<svg xmlns="http://www.w3.org/2000/svg" viewBox="0 0 400 300"><rect width="400" height="300" fill="#FFF3E4"/><rect x="0" y="0" width="400" height="300" fill="#FFF8F2" opacity="0.4"/><path d="M186.0 84.0 C 180.0 65.99999999999999, 192.0 57.0, 186.0 39.000000000000014" stroke="#C89B6D" stroke-width="3" fill="none" stroke-linecap="round" opacity="0.8"/>
  <path d="M202.0 84.0 C 196.0 65.99999999999999, 208.0 57.0, 202.0 39.000000000000014" stroke="#C89B6D" stroke-width="3" fill="none" stroke-linecap="round" opacity="0.8"/>
  <path d="M218.0 84.0 C 212.0 65.99999999999999, 224.0 57.0, 218.0 39.000000000000014" stroke="#C89B6D" stroke-width="3" fill="none" stroke-linecap="round" opacity="0.8"/>
  <ellipse cx="200.0" cy="115.5" rx="62.99999999999999" ry="12.600000000000001" fill="#4A3324"/>
  <path d="M137.0 115.5 h125.99999999999999 v13.5 a62.99999999999999 49.50000000000001 0 0 1 -62.99999999999999 49.50000000000001 a62.99999999999999 49.50000000000001 0 0 1 -62.99999999999999 -49.50000000000001 z" fill="#C89B6D"/>
  <path d="M263.0 127.2 h19.8 a19.8 18.0 0 0 1 0 36.0 h-14.4" fill="none" stroke="#C89B6D" stroke-width="9.0"/>
  <path d="M140.6 178.5 h118.80000000000001 l-9.0 25.200000000000003 a9.0 9.0 0 0 1 -8.1 6.300000000000001 h-84.6 a9.0 9.0 0 0 1 -8.1 -6.300000000000001 z" fill="#4A3324"/></svg>