<svg xmlns="http://www.w3.org/2000/svg" viewBox="0 0 1600 1000"><defs><linearGradient id="heroGrad" x1="0" y1="0" x2="1" y2="1"><stop offset="0%" stop-color="#6F4E37"/><stop offset="100%" stop-color="#4A3324"/></linearGradient></defs>
  <rect width="1600" height="1000" fill="url(#heroGrad)"/><circle cx="240.0" cy="200.0" r="180" fill="#C89B6D" opacity="0.12"/><circle cx="1360.0" cy="750.0" r="240" fill="#3E7C59" opacity="0.12"/><path d="M786.0 422.0 C 780.0 378.0, 792.0 356.0, 786.0 312.0" stroke="#C89B6D" stroke-width="3" fill="none" stroke-linecap="round" opacity="0.8"/>
  <path d="M802.0 422.0 C 796.0 378.0, 808.0 356.0, 802.0 312.0" stroke="#C89B6D" stroke-width="3" fill="none" stroke-linecap="round" opacity="0.8"/>
  <path d="M818.0 422.0 C 812.0 378.0, 824.0 356.0, 818.0 312.0" stroke="#C89B6D" stroke-width="3" fill="none" stroke-linecap="round" opacity="0.8"/>
  <ellipse cx="800.0" cy="499.0" rx="154.0" ry="30.800000000000004" fill="#4A3324"/>
  <path d="M646.0 499.0 h308.0 v33.0 a154.0 121.00000000000001 0 0 1 -154.0 121.00000000000001 a154.0 121.00000000000001 0 0 1 -154.0 -121.00000000000001 z" fill="#C89B6D"/>
  <path d="M954.0 527.6 h48.4 a48.4 44.0 0 0 1 0 88.0 h-35.2" fill="none" stroke="#C89B6D" stroke-width="22.0"/>
  <path d="M654.8 653.0 h290.40000000000003 l-22.0 61.60000000000001 a22.0 22.0 0 0 1 -19.8 15.400000000000002 h-206.79999999999998 a22.0 22.0 0 0 1 -19.8 -15.400000000000002 z" fill="#4A3324"/></svg>