<svg xmlns="http://www.w3.org/2000/svg" viewBox="0 0 400 300"><rect width="400" height="300" fill="#FFF3E4"/><rect x="0" y="0" width="400" height="300" fill="#FFF8F2" opacity="0.4"/><ellipse cx="200.0" cy="232.5" rx="99.00000000000001" ry="25.200000000000003" fill="#FFF3E4" stroke="#C89B6D" stroke-width="2"/>
  <path d="M110.0 219.0 q27.0 -72.0 62.99999999999999 -45.0 q27.0 18.0 0 45.0" stroke="#EFC873" stroke-width="6" fill="none" stroke-linecap="round"/>
  <path d="M155.0 219.0 q27.0 -72.0 62.99999999999999 -45.0 q27.0 18.0 0 45.0" stroke="#EFC873" stroke-width="6" fill="none" stroke-linecap="round"/>
  <path d="M200.0 219.0 q27.0 -72.0 62.99999999999999 -45.0 q27.0 18.0 0 45.0" stroke="#EFC873" stroke-width="6" fill="none" stroke-linecap="round"/>
  <path d="M245.0 219.0 q27.0 -72.0 62.99999999999999 -45.0 q27.0 18.0 0 45.0" stroke="#EFC873" stroke-width="6" fill="none" stroke-linecap="round"/>
  <path d="M290.0 219.0 q27.0 -72.0 62.99999999999999 -45.0 q27.0 18.0 0 45.0" stroke="#EFC873" stroke-width="6" fill="none" stroke-linecap="round"/>
  <circle cx="227.0" cy="174.0" r="7.2" fill="#3E7C59"/></svg>